<svg width="16" height="16" viewBox="0 0 16 16" fill="none" xmlns="http://www.w3.org/2000/svg">
<path d="M3.52667 9.8028C3.58865 9.86529 3.66238 9.91488 3.74362 9.94873C3.82486 9.98257 3.912 10 4.00001 10C4.08801 10 4.17515 9.98257 4.25639 9.94873C4.33763 9.91488 4.41136 9.86529 4.47334 9.8028L7.52667 6.74947C7.58865 6.68699 7.66238 6.63739 7.74362 6.60355C7.82486 6.5697 7.912 6.55228 8.00001 6.55228C8.08802 6.55228 8.17515 6.5697 8.25639 6.60355C8.33763 6.63739 8.41137 6.68699 8.47334 6.74947L11.5267 9.8028C11.5887 9.86529 11.6624 9.91488 11.7436 9.94873C11.8249 9.98257 11.912 10 12 10C12.088 10 12.1752 9.98257 12.2564 9.94873C12.3376 9.91488 12.4114 9.86529 12.4733 9.8028C12.5975 9.67789 12.6672 9.50893 12.6672 9.3328C12.6672 9.15668 12.5975 8.98771 12.4733 8.8628L9.41334 5.80281C9.03834 5.42828 8.53001 5.2179 8.00001 5.2179C7.47001 5.2179 6.96167 5.42828 6.58667 5.80281L3.52667 8.8628C3.4025 8.98771 3.33281 9.15668 3.33281 9.3328C3.33281 9.50893 3.4025 9.67789 3.52667 9.8028V9.8028Z" fill="white"/>
</svg>
