<svg width="16" height="16" viewBox="0 0 16 16" fill="none" xmlns="http://www.w3.org/2000/svg">
<path d="M12.4733 6.1972C12.4114 6.13471 12.3376 6.08512 12.2564 6.05127C12.1751 6.01743 12.088 6 12 6C11.912 6 11.8248 6.01743 11.7436 6.05127C11.6624 6.08512 11.5886 6.13471 11.5267 6.1972L8.47333 9.25053C8.41135 9.31301 8.33762 9.36261 8.25638 9.39645C8.17514 9.4303 8.088 9.44772 7.99999 9.44772C7.91198 9.44772 7.82485 9.4303 7.74361 9.39645C7.66237 9.36261 7.58863 9.31301 7.52666 9.25053L4.47332 6.1972C4.41135 6.13471 4.33761 6.08512 4.25637 6.05127C4.17513 6.01743 4.088 6 3.99999 6C3.91198 6 3.82484 6.01743 3.7436 6.05127C3.66237 6.08512 3.58863 6.13471 3.52666 6.1972C3.40249 6.32211 3.33279 6.49107 3.33279 6.6672C3.33279 6.84332 3.40249 7.01229 3.52666 7.1372L6.58666 10.1972C6.96166 10.5717 7.46999 10.7821 7.99999 10.7821C8.52999 10.7821 9.03833 10.5717 9.41333 10.1972L12.4733 7.1372C12.5975 7.01229 12.6672 6.84332 12.6672 6.6672C12.6672 6.49107 12.5975 6.32211 12.4733 6.1972V6.1972Z" fill="white"/>
</svg>
