<svg width="27" height="132" viewBox="0 0 27 132" fill="none" xmlns="http://www.w3.org/2000/svg">
<path d="M1.09375 116.377H21V119.029L5.64648 129.051H21V131.689H1.09375V129.051L16.4883 118.988H1.09375V116.377ZM21.2734 105.945C21.2734 106.975 21.1003 107.91 20.7539 108.748C20.3984 109.577 19.9017 110.293 19.2637 110.895C18.6257 111.487 17.8691 111.943 16.9941 112.262C16.1191 112.581 15.1621 112.74 14.123 112.74H13.5488C12.3457 112.74 11.2747 112.562 10.3359 112.207C9.38802 111.852 8.58594 111.368 7.92969 110.758C7.27344 110.147 6.77669 109.454 6.43945 108.68C6.10221 107.905 5.93359 107.103 5.93359 106.273C5.93359 105.216 6.11589 104.305 6.48047 103.539C6.84505 102.764 7.35547 102.131 8.01172 101.639C8.65885 101.146 9.42448 100.782 10.3086 100.545C11.1836 100.308 12.1406 100.189 13.1797 100.189H14.3145L14.3145 111.236H12.25L12.25 102.719H12.0586C11.4023 102.755 10.7643 102.892 10.1445 103.129C9.52474 103.357 9.01432 103.721 8.61328 104.223C8.21224 104.724 8.01172 105.408 8.01172 106.273C8.01172 106.848 8.13477 107.376 8.38086 107.859C8.61784 108.342 8.97331 108.757 9.44727 109.104C9.92122 109.45 10.5 109.719 11.1836 109.91C11.8672 110.102 12.6556 110.197 13.5488 110.197H14.123C14.8249 110.197 15.4857 110.102 16.1055 109.91C16.7161 109.71 17.2539 109.423 17.7188 109.049C18.1836 108.666 18.5482 108.206 18.8125 107.668C19.0768 107.121 19.209 106.501 19.209 105.809C19.209 104.915 19.0267 104.159 18.6621 103.539C18.2975 102.919 17.8099 102.377 17.1992 101.912L18.416 100.381C18.8991 100.7 19.3594 101.105 19.7969 101.598C20.2344 102.09 20.5898 102.696 20.8633 103.416C21.1367 104.127 21.2734 104.97 21.2734 105.945ZM9.05078 94.707H26.6875V97.25H6.20703V94.9258L9.05078 94.707ZM13.4805 84.7402H13.7676C14.8431 84.7402 15.8411 84.8678 16.7617 85.123C17.6732 85.3783 18.4661 85.752 19.1406 86.2441C19.8151 86.7272 20.3392 87.3242 20.7129 88.0352C21.0866 88.7461 21.2734 89.5618 21.2734 90.4824C21.2734 91.4212 21.1185 92.2507 20.8086 92.9707C20.4987 93.6908 20.0475 94.3014 19.4551 94.8027C18.8626 95.304 18.1517 95.7051 17.3223 96.0059C16.4928 96.2975 15.5586 96.498 14.5195 96.6074H12.9883C11.8945 96.498 10.9147 96.293 10.0488 95.9922C9.18294 95.6914 8.44466 95.2949 7.83398 94.8027C7.21419 94.3014 6.74479 93.6953 6.42578 92.9844C6.09766 92.2734 5.93359 91.4531 5.93359 90.5234C5.93359 89.5938 6.11589 88.7689 6.48047 88.0488C6.83594 87.3288 7.34635 86.7227 8.01172 86.2305C8.67708 85.7383 9.47461 85.3691 10.4043 85.123C11.3249 84.8678 12.3503 84.7402 13.4805 84.7402ZM13.7676 87.2832H13.4805C12.7422 87.2832 12.0495 87.3607 11.4023 87.5156C10.7461 87.6706 10.1719 87.9121 9.67969 88.2402C9.17839 88.5592 8.78646 88.9694 8.50391 89.4707C8.21224 89.972 8.06641 90.569 8.06641 91.2617C8.06641 91.8997 8.17578 92.4557 8.39453 92.9297C8.61328 93.3945 8.90951 93.791 9.2832 94.1191C9.64779 94.4473 10.0671 94.7161 10.541 94.9258C11.0059 95.1263 11.4889 95.2767 11.9902 95.377H15.5313C16.1693 95.1947 16.7708 94.9395 17.3359 94.6113C17.8919 94.2832 18.3431 93.8457 18.6895 93.2988C19.0267 92.752 19.1953 92.0638 19.1953 91.2344C19.1953 90.5508 19.054 89.9629 18.7715 89.4707C18.4798 88.9694 18.0833 88.5592 17.582 88.2402C17.0807 87.9121 16.5065 87.6706 15.8594 87.5156C15.2031 87.3607 14.5059 87.2832 13.7676 87.2832ZM21.2734 75.375C21.2734 76.4049 21.1003 77.3392 20.7539 78.1777C20.3984 79.0072 19.9017 79.7227 19.2637 80.3242C18.6257 80.9167 17.8691 81.3724 16.9941 81.6914C16.1191 82.0104 15.1621 82.1699 14.123 82.1699H13.5488C12.3457 82.1699 11.2747 81.9922 10.3359 81.6367C9.38802 81.2812 8.58594 80.7982 7.92969 80.1875C7.27344 79.5768 6.77669 78.8841 6.43945 78.1094C6.10221 77.3346 5.93359 76.5326 5.93359 75.7031C5.93359 74.6458 6.11589 73.7344 6.48047 72.9688C6.84505 72.194 7.35547 71.5605 8.01172 71.0684C8.65885 70.5762 9.42448 70.2116 10.3086 69.9746C11.1836 69.7376 12.1406 69.6191 13.1797 69.6191H14.3145V80.666H12.25V72.1484H12.0586C11.4023 72.1849 10.7643 72.3216 10.1445 72.5586C9.52474 72.7865 9.01432 73.151 8.61328 73.6523C8.21224 74.1536 8.01172 74.8372 8.01172 75.7031C8.01172 76.2773 8.13477 76.806 8.38086 77.2891C8.61784 77.7721 8.97331 78.1868 9.44727 78.5332C9.92122 78.8796 10.5 79.1484 11.1836 79.3398C11.8672 79.5312 12.6556 79.627 13.5488 79.627H14.123C14.8249 79.627 15.4857 79.5312 16.1055 79.3398C16.7161 79.1393 17.2539 78.8522 17.7188 78.4785C18.1836 78.0957 18.5482 77.6354 18.8125 77.0977C19.0768 76.5508 19.209 75.931 19.209 75.2383C19.209 74.3451 19.0267 73.5885 18.6621 72.9688C18.2975 72.349 17.8099 71.8066 17.1992 71.3418L18.416 69.8105C18.8991 70.1296 19.3594 70.5352 19.7969 71.0273C20.2344 71.5195 20.5898 72.1257 20.8633 72.8457C21.1367 73.5566 21.2734 74.3997 21.2734 75.375ZM9.36523 64.1367H21V66.666H6.20703V64.2734L9.36523 64.1367ZM13.043 64.7383L13.002 65.791C11.9902 65.7819 11.056 65.6315 10.1992 65.3398C9.33333 65.0482 8.58138 64.638 7.94336 64.1094C7.30534 63.5807 6.81315 62.9518 6.4668 62.2227C6.11133 61.4844 5.93359 60.6686 5.93359 59.7754C5.93359 59.0462 6.03385 58.39 6.23438 57.8066C6.42578 57.2233 6.73568 56.7266 7.16406 56.3164C7.59245 55.8971 8.14844 55.5781 8.83203 55.3594C9.50651 55.1406 10.3314 55.0312 11.3066 55.0312H21V57.5742H11.2793C10.5046 57.5742 9.88477 57.6882 9.41992 57.916C8.94596 58.1439 8.60417 58.4766 8.39453 58.9141C8.17578 59.3516 8.06641 59.8893 8.06641 60.5273C8.06641 61.1562 8.19857 61.7305 8.46289 62.25C8.72721 62.7604 9.0918 63.2025 9.55664 63.5762C10.0215 63.9408 10.5547 64.2279 11.1563 64.4375C11.7487 64.638 12.3776 64.7383 13.043 64.7383ZM6.20703 44.9961H8.14844V52.9941H6.20703V44.9961ZM2.61133 50.2871V47.7578H17.3359C17.8372 47.7578 18.2155 47.6803 18.4707 47.5254C18.7259 47.3704 18.8945 47.1699 18.9766 46.9238C19.0586 46.6777 19.0996 46.4134 19.0996 46.1309C19.0996 45.9212 19.0814 45.7025 19.0449 45.4746C18.9993 45.2376 18.9629 45.0599 18.9355 44.9414L21 44.9277C21.0638 45.1283 21.123 45.3926 21.1777 45.7207C21.2415 46.0397 21.2734 46.4271 21.2734 46.8828C21.2734 47.5026 21.1504 48.0723 20.9043 48.5918C20.6582 49.1113 20.248 49.526 19.6738 49.8359C19.0905 50.1367 18.3066 50.2871 17.3223 50.2871H2.61133ZM0 39.5H21V42.0293H0L0 39.5ZM13.043 40.1016L13.002 41.1543C11.9902 41.1452 11.056 40.9948 10.1992 40.7031C9.33333 40.4115 8.58138 40.0013 7.94336 39.4727C7.30534 38.944 6.81315 38.3151 6.4668 37.5859C6.11133 36.8477 5.93359 36.0319 5.93359 35.1387C5.93359 34.4095 6.03385 33.7533 6.23438 33.1699C6.42578 32.5866 6.73568 32.0898 7.16406 31.6797C7.59245 31.2604 8.14844 30.9414 8.83203 30.7227C9.50651 30.5039 10.3314 30.3945 11.3066 30.3945H21V32.9375H11.2793C10.5046 32.9375 9.88477 33.0514 9.41992 33.2793C8.94596 33.5072 8.60417 33.8398 8.39453 34.2773C8.17578 34.7148 8.06641 35.2526 8.06641 35.8906C8.06641 36.5195 8.19857 37.0938 8.46289 37.6133C8.72721 38.1237 9.0918 38.5658 9.55664 38.9395C10.0215 39.304 10.5547 39.5911 11.1563 39.8008C11.7487 40.0013 12.3776 40.1016 13.043 40.1016ZM21.2734 20.4688C21.2734 21.4987 21.1003 22.4329 20.7539 23.2715C20.3984 24.1009 19.9017 24.8164 19.2637 25.418C18.6257 26.0104 17.8691 26.4661 16.9941 26.7852C16.1191 27.1042 15.1621 27.2637 14.123 27.2637H13.5488C12.3457 27.2637 11.2747 27.0859 10.3359 26.7305C9.38802 26.375 8.58594 25.8919 7.92969 25.2812C7.27344 24.6706 6.77669 23.9779 6.43945 23.2031C6.10221 22.4284 5.93359 21.6263 5.93359 20.7969C5.93359 19.7396 6.11589 18.8281 6.48047 18.0625C6.84505 17.2878 7.35547 16.6543 8.01172 16.1621C8.65885 15.6699 9.42448 15.3053 10.3086 15.0684C11.1836 14.8314 12.1406 14.7129 13.1797 14.7129H14.3145V25.7598H12.25V17.2422H12.0586C11.4023 17.2786 10.7643 17.4154 10.1445 17.6523C9.52474 17.8802 9.01432 18.2448 8.61328 18.7461C8.21224 19.2474 8.01172 19.931 8.01172 20.7969C8.01172 21.3711 8.13477 21.8997 8.38086 22.3828C8.61784 22.8659 8.97331 23.2806 9.44727 23.627C9.92122 23.9733 10.5 24.2422 11.1836 24.4336C11.8672 24.625 12.6556 24.7207 13.5488 24.7207H14.123C14.8249 24.7207 15.4857 24.625 16.1055 24.4336C16.7161 24.2331 17.2539 23.946 17.7188 23.5723C18.1836 23.1895 18.5482 22.7292 18.8125 22.1914C19.0768 21.6445 19.209 21.0247 19.209 20.332C19.209 19.4388 19.0267 18.6823 18.6621 18.0625C18.2975 17.4427 17.8099 16.9004 17.1992 16.4355L18.416 14.9043C18.8991 15.2233 19.3594 15.6289 19.7969 16.1211C20.2344 16.6133 20.5898 17.2194 20.8633 17.9395C21.1367 18.6504 21.2734 19.4935 21.2734 20.4688ZM17.0762 3.14648C16.7116 3.14648 16.3743 3.22852 16.0645 3.39258C15.7454 3.54753 15.4583 3.87109 15.2031 4.36328C14.9388 4.84635 14.7109 5.57552 14.5195 6.55078C14.3464 7.37109 14.1413 8.11393 13.9043 8.7793C13.6673 9.43555 13.3802 9.99609 13.043 10.4609C12.7057 10.9167 12.3092 11.2676 11.8535 11.5137C11.3978 11.7598 10.8646 11.8828 10.2539 11.8828C9.67057 11.8828 9.11914 11.7552 8.59961 11.5C8.08008 11.2357 7.61979 10.8665 7.21875 10.3926C6.81771 9.90951 6.50326 9.33073 6.27539 8.65625C6.04753 7.98177 5.93359 7.22982 5.93359 6.40039C5.93359 5.21549 6.14323 4.20378 6.5625 3.36523C6.98177 2.52669 7.54232 1.88411 8.24414 1.4375C8.93685 0.990885 9.70703 0.767578 10.5547 0.767578V3.29688C10.1445 3.29688 9.74805 3.41992 9.36523 3.66602C8.97331 3.90299 8.64974 4.25391 8.39453 4.71875C8.13932 5.17448 8.01172 5.73503 8.01172 6.40039C8.01172 7.10221 8.12109 7.67188 8.33984 8.10938C8.54948 8.53776 8.81836 8.85221 9.14648 9.05273C9.47461 9.24414 9.82096 9.33984 10.1855 9.33984C10.459 9.33984 10.7051 9.29427 10.9238 9.20312C11.1335 9.10286 11.3294 8.92969 11.5117 8.68359C11.6849 8.4375 11.849 8.09115 12.0039 7.64453C12.1589 7.19792 12.3138 6.62826 12.4688 5.93555C12.7422 4.72331 13.0703 3.72526 13.4531 2.94141C13.8359 2.15755 14.3053 1.57422 14.8613 1.19141C15.4173 0.808594 16.0918 0.617188 16.8848 0.617188C17.5319 0.617188 18.1243 0.753906 18.6621 1.02734C19.1999 1.29167 19.6647 1.67904 20.0566 2.18945C20.4395 2.69076 20.7402 3.29232 20.959 3.99414C21.1686 4.68685 21.2734 5.46615 21.2734 6.33203C21.2734 7.63542 21.041 8.73828 20.5762 9.64062C20.1113 10.543 19.5098 11.2266 18.7715 11.6914C18.0332 12.1562 17.2539 12.3887 16.4336 12.3887V9.8457C17.1263 9.80924 17.6777 9.60872 18.0879 9.24414C18.4889 8.87956 18.776 8.43294 18.9492 7.9043C19.1133 7.37565 19.1953 6.85156 19.1953 6.33203C19.1953 5.63932 19.1042 5.06055 18.9219 4.5957C18.7396 4.12174 18.4889 3.76172 18.1699 3.51562C17.8509 3.26953 17.4863 3.14648 17.0762 3.14648Z" fill="white"/>
</svg>
