<svg width="16" height="16" viewBox="0 0 16 16" fill="none" xmlns="http://www.w3.org/2000/svg">
<g clip-path="url(#clip0_5_165)">
<path d="M1.33333 9.33333C2.06971 9.33333 2.66667 8.73637 2.66667 7.99999C2.66667 7.26361 2.06971 6.66666 1.33333 6.66666C0.596954 6.66666 0 7.26361 0 7.99999C0 8.73637 0.596954 9.33333 1.33333 9.33333Z" fill="white"/>
<path d="M7.99999 9.33333C8.73637 9.33333 9.33333 8.73637 9.33333 7.99999C9.33333 7.26361 8.73637 6.66666 7.99999 6.66666C7.26361 6.66666 6.66666 7.26361 6.66666 7.99999C6.66666 8.73637 7.26361 9.33333 7.99999 9.33333Z" fill="white"/>
<path d="M14.6667 9.33333C15.4031 9.33333 16 8.73637 16 7.99999C16 7.26361 15.4031 6.66666 14.6667 6.66666C13.9303 6.66666 13.3333 7.26361 13.3333 7.99999C13.3333 8.73637 13.9303 9.33333 14.6667 9.33333Z" fill="white"/>
</g>
<defs>
<clipPath id="clip0_5_165">
<rect width="16" height="16" fill="white"/>
</clipPath>
</defs>
</svg>
