<svg width="32" height="32" viewBox="0 0 32 32" fill="none" xmlns="http://www.w3.org/2000/svg">
<mask id="mask0_2_36" style="mask-type:alpha" maskUnits="userSpaceOnUse" x="5" y="17" width="23" height="12">
<path fill-rule="evenodd" clip-rule="evenodd" d="M5.17871 26.9376C5.8253 21.4984 10.4709 17.28 16.1056 17.28C21.7403 17.28 26.3859 21.4984 27.0325 26.9376C26.4763 27.572 25.8722 28.1579 25.2265 28.6888C25.2341 28.54 25.238 28.3902 25.238 28.24C25.238 23.4219 21.2756 19.28 16.1056 19.28C11.3173 19.28 7.54562 22.8499 7.03391 27.2005C6.99389 27.5408 6.97323 27.8875 6.97323 28.24C6.97323 28.3902 6.97707 28.54 6.98471 28.6888C6.33899 28.1579 5.73495 27.572 5.17871 26.9376Z" fill="white"/>
</mask>
<g mask="url(#mask0_2_36)">
<path d="M4.98351 26.8873L3.11183 26.6302L3 27.5817L3.60673 28.2818L4.98351 26.8873ZM27.0164 26.8873L28.3932 28.2816L29 27.5817L28.8882 26.6302L27.0164 26.8873ZM25.1956 28.673L23.3117 28.5616L23.0868 33L26.346 30.2896L25.1956 28.673ZM6.85391 27.1554L8.72591 27.4097L6.85391 27.1554ZM6.80431 28.673L5.65383 30.2896L8.9131 33L8.68822 28.5616L6.80431 28.673ZM16 15C9.46161 15 3.89478 19.9688 3.11183 26.6302L6.85521 27.1443C7.37602 22.7131 11.1764 19.0788 16 19.0788V15ZM28.8882 26.6302C28.1051 19.9688 22.5383 15 16 15V19.0788C20.8235 19.0788 24.6238 22.7131 25.1447 27.1443L28.8882 26.6302ZM25.6397 25.4929C25.1485 26.0595 24.6151 26.5827 24.0451 27.0567L26.346 30.2896C27.0781 29.6807 27.7628 29.009 28.3932 28.2816L25.6397 25.4929ZM27.0796 28.7846C27.0891 28.5957 27.0939 28.406 27.0939 28.2154H23.3205C23.3205 28.3314 23.3175 28.4467 23.3117 28.5616L27.0796 28.7846ZM27.0939 28.2154C27.0939 22.0515 22.1353 17.0394 16 17.0394V21.1183C20.2895 21.1183 23.3205 24.5533 23.3205 28.2154H27.0939ZM16 17.0394C10.3095 17.0394 5.62711 21.353 4.98191 26.901L8.72591 27.4097C9.11252 24.0852 12.0352 21.1183 16 21.1183V17.0394ZM4.98191 26.901C4.93178 27.3321 4.906 27.7706 4.906 28.2154H8.67946C8.67946 27.9413 8.69534 27.6726 8.72591 27.4097L4.98191 26.901ZM4.906 28.2154C4.906 28.406 4.91083 28.5957 4.9204 28.7846L8.68822 28.5616C8.68241 28.4467 8.67946 28.3314 8.67946 28.2154H4.906ZM7.95479 27.0567C7.38479 26.5827 6.85145 26.0595 6.36031 25.4929L3.60673 28.2818C4.23715 29.009 4.92182 29.6807 5.65383 30.2896L7.95479 27.0567Z" fill="white"/>
</g>
<path d="M16 31C24.2843 31 31 24.2843 31 16C31 7.71573 24.2843 1 16 1C7.71573 1 1 7.71573 1 16C1 24.2843 7.71573 31 16 31Z" stroke="white" fill="none" stroke-width="2"/>
<path d="M15.9999 17.88C19.0706 17.88 21.5599 15.3907 21.5599 12.32C21.5599 9.24926 19.0706 6.75997 15.9999 6.75997C12.9292 6.75997 10.4399 9.24926 10.4399 12.32C10.4399 15.3907 12.9292 17.88 15.9999 17.88Z" stroke="white" fill="none" stroke-width="2"/>
</svg>
